# xmcd
#
# Track frame offsets:
#	150
#	11731
#	28598
#	63663
#	104428
#	119001
#	160551
#	197016
#	224966
#	262336
#
# Disc length: 3731 seconds
#
# Revision: 1
# Processed by: cddbd v1.5.2PL0 Copyright (c) Steve Scherf et al.
# Submitted via: audiograbber 1.83.01
#
DISCID=9c0e910a
DTITLE=Dave Brubeck - Out of Nowhere
DYEAR=2007
DGENRE=Jazz
TTITLE0=(Back Home Again In) Indiana
TTITLE1=Body And Soul
TTITLE2=The Way You Look Tonight
TTITLE3=How High The Moon
TTITLE4=Laura
TTITLE5=I Remember You
TTITLE6=Out Of Nowhere
TTITLE7=Take The A Train
TTITLE8=Someday My Prince Will Come
TTITLE9=Heigh-Ho
EXTD=
EXTT0=
EXTT1=
EXTT2=
EXTT3=
EXTT4=
EXTT5=
EXTT6=
EXTT7=
EXTT8=
EXTT9=
PLAYORDER=
